<?xml version="1.0" encoding="utf-8"?>
<!-- Generator: Adobe Illustrator 22.1.0, SVG Export Plug-In . SVG Version: 6.00 Build 0)  -->
<svg version="1.0" id="Layer_1" xmlns="http://www.w3.org/2000/svg" xmlns:xlink="http://www.w3.org/1999/xlink" x="0px" y="0px"
	 viewBox="0 0 334 69" enable-background="new 0 0 334 69" xml:space="preserve">
<g>
	<path fill="#524759" d="M37.3,4v15.7h-0.1L28.8,6.3c-0.4-0.7-1-1-1.8-1h-6.7c-0.5,0-0.8,0.1-0.9,0.2c-0.1,0.2-0.2,0.5-0.2,1.1v19.6
		h4.4c0.6,0,1.2-0.3,1.7-0.9l5.8-6.8h0.1V35h-0.1l-5.8-6.8c-0.5-0.6-1.1-0.8-1.8-0.8h-4.4V47c0,0.6,0.1,0.9,0.2,1.1
		c0.1,0.2,0.4,0.2,0.9,0.2h7.5c1,0,1.6-0.3,1.9-0.9l8.1-13.8h0.1v16H2.5v-0.1l4.4-4.1c0.4-0.4,0.6-0.9,0.6-1.6v-34
		c0-0.6-0.2-1.2-0.6-1.6L2.5,4.1V4H37.3z"/>
	<path fill="#524759" d="M67.4,43.4c0,0.7,0.2,1.3,0.7,1.7l4.8,4.4v0.1H50.2v-0.1l4.8-4.4c0.5-0.5,0.7-1,0.7-1.7V5.3H52
		c-0.5,0-0.9,0.1-1.1,0.2c-0.2,0.1-0.4,0.4-0.6,0.9l-8,15.2h-0.1V4h38.7v17.5h-0.1l-8-15.2c-0.2-0.5-0.4-0.8-0.6-0.9
		s-0.6-0.2-1.1-0.2h-3.7L67.4,43.4L67.4,43.4z"/>
	<path fill="#524759" d="M126.6,9.8v34.1c0,0.6,0.2,1.2,0.6,1.6l4.3,4.1v0.1h-21.6v-0.1l4.3-4.1c0.4-0.4,0.6-1,0.6-1.6v-17h-15v17
		c0,0.6,0.2,1.2,0.6,1.6l4.3,4.1v0.1H83.1v-0.1l4.4-4.1c0.4-0.4,0.6-0.9,0.6-1.6V9.8c0-0.6-0.2-1.2-0.6-1.6l-4.4-4.1V4h21.6v0.1
		l-4.3,4.1c-0.4,0.4-0.6,0.9-0.6,1.6v15.9h15.1V9.8c0-0.6-0.2-1.2-0.6-1.6L110,4.1V4h21.6v0.1l-4.3,4.1
		C126.8,8.6,126.6,9.1,126.6,9.8z"/>
	<path fill="#BF93D8" d="M143.4,33.7l-1.7,5.2c-0.2,0.5-0.2,0.9-0.2,1.1c0.1,0.2,0.3,0.6,0.7,1.2l5.8,8.3v0.1h-15.4v-0.1l6.2-8.3
		c0.7-0.9,1.2-1.8,1.5-2.7l9-27.7c0.2-0.6,0.3-1,0.3-1.3c0-0.2-0.3-0.6-0.6-1l-3.8-4.4V4h15.3l12.2,38.5c0.2,0.7,0.6,1.6,1.3,2.7
		l2.7,4.4v0.1h-19.2v-0.1l3.1-4.4c0.3-0.4,0.3-1,0.1-1.8l-3.1-9.7H143.4z M150.6,11.4l-6.8,21.1h13.4L150.6,11.4z"/>
	<path fill="#BF93D8" d="M212.7,30.7c0,1.6,0,4.1-0.1,7.8c-0.1,3.6-0.1,5.8-0.1,6.5c0,0.6,0.2,1.2,0.6,1.6l3.2,3v0.1H198v-0.1l3.1-3
		c0.4-0.4,0.6-0.9,0.6-1.5c0-0.1,0-2,0.1-5.6s0.1-6,0.1-7.2c0-3.2-0.3-5.7-1-7.3c-0.7-1.6-2-2.5-3.9-2.5s-3.5,1-4.8,2.9V45
		c0,0.7,0.2,1.2,0.6,1.6l3.2,3v0.1h-18.2v-0.1l3.2-3c0.4-0.3,0.6-0.9,0.6-1.6V22.5c0-0.6-0.2-1.2-0.6-1.6l-3.2-3.2v-0.1h14.4v6.9
		c1.8-4.9,5.2-7.4,10.3-7.4c3.2,0,5.8,1.2,7.5,3.5C211.8,22.8,212.7,26.2,212.7,30.7z"/>
	<path fill="#BF93D8" d="M218.7,27.8c0-3.6,1.3-6.2,3.8-8.1c2.6-1.8,5.9-2.7,10.1-2.7c3.7,0,6.6,0.6,8.9,1.8
		c0.5,0.3,0.9,0.2,1.4-0.3l6.8-7.1l0.1,0.1v9.7h-6.1c2.2,1.8,3.3,4.1,3.3,7c0,3.4-1.3,6-3.9,7.6c-2.6,1.7-6,2.5-10.3,2.5
		c-2.1,0-3.8-0.2-5.3-0.5c-1.3,0.5-2,1.3-2,2.4c0,1.9,2.2,2.9,6.6,2.9h6c7.8,0,11.6,2.9,11.6,8.6c0,3.9-1.7,7.1-5.2,9.6
		s-7.8,3.7-13.1,3.7c-3.6,0-6.7-0.6-9.3-1.7c-2.7-1.1-4-2.8-4-4.8c0-1.4,0.6-2.6,1.9-3.7c1.2-1.1,3.1-1.8,5.7-2.2
		c-2.3-0.5-4-1.3-5.2-2.6s-1.9-2.8-1.9-4.5c0-1.9,0.7-3.6,2.2-4.9c1.5-1.4,3.5-2.4,6-3C221.4,36.2,218.7,32.9,218.7,27.8z
		 M228.6,52.9c-1-0.1-1.8-0.2-2.3-0.3c-1.7,1-2.6,2.4-2.6,4.2c0,2.1,1,3.7,3,5c2,1.2,4.3,1.9,7,1.9c2.6,0,4.8-0.5,6.7-1.6
		s2.8-2.6,2.8-4.6c0-1.3-0.5-2.4-1.4-3.1c-0.9-0.7-2.5-1.1-4.8-1.2L228.6,52.9z M228.7,27.6c0,3.5,0.3,5.9,1,7.4s1.7,2.2,3.1,2.2
		c1.4,0,2.4-0.7,3.1-2.2c0.7-1.5,1-3.9,1-7.4c0-3.4-0.3-5.9-1-7.3c-0.7-1.5-1.7-2.2-3.2-2.2c-1.4,0-2.5,0.7-3.2,2.2
		C229,21.7,228.7,24.2,228.7,27.6z"/>
	<path fill="#BF93D8" d="M280.4,32.1h-19.5v0.1c0,4,0.9,7,2.6,8.9c1.7,2,4,3,6.7,3c4.6,0,7.9-2,9.9-6h0.1c-1.6,8-6.4,12-14.4,12
		c-4.5,0-8.2-1.4-11.3-4.2c-3.1-2.8-4.6-6.8-4.6-12.2c0-5.7,1.5-9.9,4.6-12.7c3.1-2.8,7-4.2,11.7-4.2c1.8,0,3.5,0.2,5.1,0.7
		s3.1,1.2,4.5,2.2s2.5,2.4,3.3,4.3c0.8,1.8,1.2,4,1.2,6.5C280.4,31.1,280.4,31.6,280.4,32.1z M266.1,18.2c-1.7,0-3,1-3.8,3
		c-0.9,2-1.3,5.2-1.4,9.8h9.6c0-0.6,0.1-1.2,0.1-1.9c0-4-0.4-6.8-1.1-8.4C268.6,19,267.5,18.2,266.1,18.2z"/>
	<path fill="#BF93D8" d="M295.1,2.3V45c0,0.6,0.2,1.2,0.7,1.6l3.2,3v0.1h-18.2v-0.1l3.2-3c0.4-0.4,0.6-0.9,0.6-1.6V8.7
		c0-0.7-0.2-1.2-0.6-1.6l-3.2-3V4L295.1,2.3z"/>
	<path fill="#BF93D8" d="M318.9,44.3c0-1.3-0.4-2.3-1.3-3s-2.5-1.6-4.9-2.7l-4.4-2.1c-4.2-2-6.3-5.1-6.3-9.2c0-3.1,1.2-5.6,3.6-7.5
		s5.6-2.8,9.7-2.8c3.8,0,7.6,0.6,11.4,1.8l-3.6,9.4H323l-5.1-9c-0.4-0.6-0.9-1-1.5-1h-0.9c-1.5,0-2.8,0.4-3.8,1.2
		c-1,0.8-1.5,1.9-1.5,3.4c0,1.3,0.5,2.4,1.4,3.2c0.9,0.8,2.5,1.7,4.6,2.7l4.2,1.8c2.3,1,4.1,2.2,5.4,3.5c1.2,1.3,1.9,3.2,1.9,5.5
		c0,3.4-1.3,6.1-4,8c-2.6,1.9-6.2,2.8-10.6,2.8c-4.2,0-8.1-0.7-12-2l3.6-10.1h0.1l5.2,10.1c0.3,0.6,0.7,0.8,1.4,0.8h1.5
		c1.9,0,3.3-0.4,4.5-1.3C318.4,46.8,318.9,45.7,318.9,44.3z"/>
</g>
</svg>
