<?xml version="1.0" encoding="utf-8"?>
<!-- Generator: Adobe Illustrator 22.1.0, SVG Export Plug-In . SVG Version: 6.00 Build 0)  -->
<svg version="1.0" id="Layer_1" xmlns="http://www.w3.org/2000/svg" xmlns:xlink="http://www.w3.org/1999/xlink" x="0px" y="0px"
	 viewBox="0 0 83.1 47.6" enable-background="new 0 0 83.1 47.6" xml:space="preserve">
<path fill="#524759" d="M35.4,0.6v15.7h-0.1L26.9,2.9c-0.4-0.7-1-1-1.8-1h-6.7c-0.5,0-0.8,0.1-0.9,0.2c-0.1,0.2-0.2,0.5-0.2,1.1
	v19.6h4.4c0.6,0,1.2-0.3,1.7-0.9l5.8-6.8h0.1v16.5h-0.1l-5.8-6.8c-0.5-0.6-1.1-0.8-1.8-0.8h-4.4v19.6c0,0.6,0.1,0.9,0.2,1.1
	c0.1,0.2,0.4,0.2,0.9,0.2h7.5c1,0,1.6-0.3,1.9-0.9l8.1-13.8h0.1v16H0.6v-0.1L5,42c0.4-0.4,0.6-0.9,0.6-1.6v-34
	c0-0.6-0.2-1.2-0.6-1.6L0.6,0.7V0.6H35.4z"/>
<path fill="#BF93D8" d="M48.5,30.3l-1.7,5.2c-0.2,0.5-0.2,0.9-0.2,1.1c0.1,0.2,0.3,0.6,0.7,1.2l5.8,8.3v0.1H37.7v-0.1l6.2-8.3
	c0.7-0.9,1.2-1.8,1.5-2.7l9-27.7c0.2-0.6,0.3-1,0.3-1.3c0-0.2-0.3-0.6-0.6-1l-3.8-4.4V0.6h15.3l12.2,38.5c0.2,0.7,0.6,1.6,1.3,2.7
	l2.7,4.4v0.1H62.6v-0.1l3.1-4.4c0.3-0.4,0.3-1,0.1-1.8l-3.1-9.7H48.5z M55.7,8l-6.8,21.1h13.4L55.7,8z"/>
</svg>
