<?xml version="1.0" encoding="utf-8"?>
<!-- Generator: Adobe Illustrator 22.1.0, SVG Export Plug-In . SVG Version: 6.00 Build 0)  -->
<svg version="1.0" id="Layer_1" xmlns="http://www.w3.org/2000/svg" xmlns:xlink="http://www.w3.org/1999/xlink" x="0px" y="0px"
	 viewBox="0 0 83.1 83.1" enable-background="new 0 0 83.1 83.1" xml:space="preserve">
<circle fill="#FFED00" cx="41.5" cy="41.2" r="41"/>
<g>
	<path fill="#524759" d="M36.5,21.5v13.5h-0.1l-7.2-11.6c-0.3-0.6-0.9-0.9-1.6-0.9h-5.8c-0.4,0-0.7,0.1-0.8,0.2
		c-0.1,0.2-0.2,0.4-0.2,0.9v16.9h3.8c0.5,0,1-0.3,1.5-0.8l5-5.9h0.1v14.2h-0.1l-5-5.9c-0.4-0.5-0.9-0.7-1.6-0.7h-3.8v16.9
		c0,0.5,0.1,0.8,0.2,0.9c0.1,0.2,0.3,0.2,0.8,0.2h6.5c0.9,0,1.4-0.3,1.6-0.8l7-11.9H37v13.8H6.5v-0.1l3.8-3.5
		c0.3-0.3,0.5-0.8,0.5-1.4V26.5c0-0.5-0.2-1-0.5-1.4l-3.8-3.5v-0.1H36.5z"/>
	<path fill="#BF93D8" d="M47.8,47.1l-1.5,4.5c-0.2,0.4-0.2,0.8-0.2,0.9c0.1,0.2,0.3,0.5,0.6,1l5,7.2v0.1H38.5v-0.1l5.3-7.2
		c0.6-0.8,1-1.6,1.3-2.3l7.8-23.9c0.2-0.5,0.3-0.9,0.3-1.1c0-0.2-0.3-0.5-0.5-0.9l-3.3-3.8v-0.1h13.2l10.5,33.2
		c0.2,0.6,0.5,1.4,1.1,2.3l2.3,3.8v0.1H60v-0.1l2.7-3.8c0.3-0.3,0.3-0.9,0.1-1.6l-2.7-8.4H47.8z M54.1,27.9l-5.9,18.2h11.6
		L54.1,27.9z"/>
</g>
</svg>
